
		<svg xmlns="http://www.w3.org/2000/svg" xmlns:xlink="http://www.w3.org/1999/xlink" version="1.1" width="3158.227843007668" height="1661.3923515805159">
			
			<g transform="scale(7.911392150383409) translate(10, 10)">
				<defs id="SvgjsDefs1553"></defs><g id="SvgjsG1554" featureKey="root" fill="#1c2572" transform="matrix(1,0,0,1,0,0)"></g><g id="SvgjsG1555" featureKey="container1" fill="#5397c4" transform="matrix(0.7633277187415652,0,0,0.7633277187415652,20,20)"><defs xmlns="http://www.w3.org/2000/svg"></defs><g xmlns="http://www.w3.org/2000/svg">  <path d="M98.254,0C44.077,0,0,44.076,0,98.254s44.077,98.254,98.254,98.254c54.177,0,98.254-44.076,98.254-98.254    S152.431,0,98.254,0z M98.254,195.508C44.628,195.508,1,151.88,1,98.254S44.628,1,98.254,1c53.626,0,97.254,43.628,97.254,97.254    S151.88,195.508,98.254,195.508z"></path>  <path d="M98.254,5.453c-51.171,0-92.801,41.63-92.801,92.801s41.63,92.801,92.801,92.801s92.802-41.63,92.802-92.801    S149.425,5.453,98.254,5.453z"></path></g></g><g id="SvgjsG1556" featureKey="symbol1" fill="#1c2572" transform="matrix(1.1666589525520918,0,0,1.1666589525520918,59.98882046780086,60)"><title>48 -Web Design- (Outline)</title><desc>Created with Sketch.</desc><g stroke="none" stroke-width="1" fill="none" fill-rule="evenodd"><g transform="translate(-904.000000, -850.000000)" fill="#1c2572"><g transform="translate(904.000000, 850.000000)"><path d="M21.0096,34.3818 L29.0096,38.3818 L29.0096,28.6768 L21.0096,25.4768 L21.0096,34.3818 Z M30.0096,40.9998 C29.8566,40.9998 29.7036,40.9648 29.5626,40.8948 L19.5626,35.8948 C19.2236,35.7248 19.0096,35.3788 19.0096,34.9998 L19.0096,23.9998 C19.0096,23.6678 19.1746,23.3578 19.4486,23.1718 C19.7246,22.9858 20.0756,22.9488 20.3806,23.0708 L30.3806,27.0708 C30.7606,27.2238 31.0096,27.5908 31.0096,27.9998 L31.0096,39.9998 C31.0096,40.3468 30.8296,40.6688 30.5346,40.8508 C30.3746,40.9498 30.1926,40.9998 30.0096,40.9998 L30.0096,40.9998 Z"></path><path d="M31.0096,28.6772 L31.0096,38.3822 L39.0096,34.3822 L39.0096,25.4772 L31.0096,28.6772 Z M30.0096,41.0002 C29.8266,41.0002 29.6446,40.9492 29.4846,40.8502 C29.1896,40.6682 29.0096,40.3462 29.0096,40.0002 L29.0096,28.0002 C29.0096,27.5912 29.2586,27.2232 29.6386,27.0712 L39.6386,23.0712 C39.9436,22.9482 40.2936,22.9852 40.5706,23.1722 C40.8446,23.3582 41.0096,23.6682 41.0096,24.0002 L41.0096,35.0002 C41.0096,35.3792 40.7956,35.7252 40.4566,35.8942 L30.4566,40.8942 C30.3156,40.9652 30.1626,41.0002 30.0096,41.0002 L30.0096,41.0002 Z"></path><path d="M22.449,23.8984 L30.01,26.9224 L37.57,23.8984 L30.01,20.1184 L22.449,23.8984 Z M30.01,29.0004 C29.884,29.0004 29.758,28.9764 29.638,28.9284 L19.638,24.9284 C19.272,24.7824 19.027,24.4354 19.011,24.0414 C18.994,23.6484 19.21,23.2814 19.562,23.1054 L29.562,18.1054 C29.844,17.9644 30.176,17.9644 30.457,18.1054 L40.457,23.1054 C40.809,23.2814 41.025,23.6484 41.009,24.0414 C40.992,24.4354 40.747,24.7824 40.381,24.9284 L30.381,28.9284 C30.261,28.9764 30.136,29.0004 30.01,29.0004 L30.01,29.0004 Z"></path><path d="M11.0096,2 L6.0096,2 C5.4566,2 5.0096,1.552 5.0096,1 C5.0096,0.448 5.4566,0 6.0096,0 L11.0096,0 C11.5626,0 12.0096,0.448 12.0096,1 C12.0096,1.552 11.5626,2 11.0096,2"></path><path d="M2.0096,2 L1.0096,2 C0.4566,2 0.0096,1.552 0.0096,1 C0.0096,0.448 0.4566,0 1.0096,0 L2.0096,0 C2.5626,0 3.0096,0.448 3.0096,1 C3.0096,1.552 2.5626,2 2.0096,2"></path><path d="M5.0096,6 L1.0096,6 C0.4566,6 0.0096,5.552 0.0096,5 C0.0096,4.448 0.4566,4 1.0096,4 L5.0096,4 C5.5626,4 6.0096,4.448 6.0096,5 C6.0096,5.552 5.5626,6 5.0096,6"></path><path d="M11.0096,6 L9.0096,6 C8.4566,6 8.0096,5.552 8.0096,5 C8.0096,4.448 8.4566,4 9.0096,4 L11.0096,4 C11.5626,4 12.0096,4.448 12.0096,5 C12.0096,5.552 11.5626,6 11.0096,6"></path><path d="M59.0096,56 L54.0096,56 C53.4566,56 53.0096,55.552 53.0096,55 C53.0096,54.448 53.4566,54 54.0096,54 L59.0096,54 C59.5626,54 60.0096,54.448 60.0096,55 C60.0096,55.552 59.5626,56 59.0096,56"></path><path d="M50.0096,56 L49.0096,56 C48.4566,56 48.0096,55.552 48.0096,55 C48.0096,54.448 48.4566,54 49.0096,54 L50.0096,54 C50.5626,54 51.0096,54.448 51.0096,55 C51.0096,55.552 50.5626,56 50.0096,56"></path><path d="M53.0096,60 L49.0096,60 C48.4566,60 48.0096,59.552 48.0096,59 C48.0096,58.448 48.4566,58 49.0096,58 L53.0096,58 C53.5626,58 54.0096,58.448 54.0096,59 C54.0096,59.552 53.5626,60 53.0096,60"></path><path d="M59.0096,60 L57.0096,60 C56.4566,60 56.0096,59.552 56.0096,59 C56.0096,58.448 56.4566,58 57.0096,58 L59.0096,58 C59.5626,58 60.0096,58.448 60.0096,59 C60.0096,59.552 59.5626,60 59.0096,60"></path><path d="M48.0096,10 C47.4566,10 47.0096,9.552 47.0096,9 L47.0096,3 C47.0096,2.448 47.4566,2 48.0096,2 C48.5626,2 49.0096,2.448 49.0096,3 L49.0096,9 C49.0096,9.552 48.5626,10 48.0096,10"></path><path d="M51.0096,7 L45.0096,7 C44.4566,7 44.0096,6.552 44.0096,6 C44.0096,5.448 44.4566,5 45.0096,5 L51.0096,5 C51.5626,5 52.0096,5.448 52.0096,6 C52.0096,6.552 51.5626,7 51.0096,7"></path><path d="M9.0096,60 C8.7536,60 8.4976,59.902 8.3026,59.707 C7.9116,59.316 7.9116,58.684 8.3026,58.293 L14.3026,52.293 C14.6936,51.902 15.3256,51.902 15.7166,52.293 C16.1076,52.684 16.1076,53.316 15.7166,53.707 L9.7166,59.707 C9.5216,59.902 9.2656,60 9.0096,60"></path><path d="M15.0096,60 C14.7536,60 14.4976,59.902 14.3026,59.707 L8.3026,53.707 C7.9116,53.316 7.9116,52.684 8.3026,52.293 C8.6936,51.902 9.3256,51.902 9.7166,52.293 L15.7166,58.293 C16.1076,58.684 16.1076,59.316 15.7166,59.707 C15.5216,59.902 15.2656,60 15.0096,60"></path><path d="M20.0086,25 C19.7826,25 19.5566,24.924 19.3686,24.768 L13.6476,20 L9.0096,20 C8.4566,20 8.0096,19.552 8.0096,19 C8.0096,18.448 8.4566,18 9.0096,18 L14.0096,18 C14.2436,18 14.4706,18.082 14.6506,18.232 L20.6506,23.232 C21.0736,23.585 21.1316,24.216 20.7786,24.64 C20.5796,24.877 20.2956,25 20.0086,25"></path><path d="M40.0106,25 C39.7236,25 39.4396,24.877 39.2406,24.64 C38.8876,24.216 38.9456,23.585 39.3686,23.232 L45.3686,18.232 C45.5486,18.082 45.7756,18 46.0096,18 L51.0096,18 C51.5626,18 52.0096,18.448 52.0096,19 C52.0096,19.552 51.5626,20 51.0096,20 L46.3716,20 L40.6506,24.768 C40.4626,24.924 40.2366,25 40.0106,25"></path><path d="M51.0096,41 L46.0096,41 C45.7756,41 45.5486,40.918 45.3686,40.768 L39.3686,35.768 C38.9456,35.415 38.8876,34.784 39.2406,34.36 C39.5946,33.936 40.2246,33.878 40.6506,34.232 L46.3716,39 L51.0096,39 C51.5626,39 52.0096,39.448 52.0096,40 C52.0096,40.552 51.5626,41 51.0096,41"></path><path d="M14.0096,41 L9.0096,41 C8.4566,41 8.0096,40.552 8.0096,40 C8.0096,39.448 8.4566,39 9.0096,39 L13.6476,39 L19.3686,34.232 C19.7956,33.878 20.4246,33.936 20.7786,34.36 C21.1316,34.784 21.0736,35.415 20.6506,35.768 L14.6506,40.768 C14.4706,40.918 14.2436,41 14.0096,41"></path><path d="M30.0096,20 C29.4566,20 29.0096,19.552 29.0096,19 L29.0096,11 C29.0096,10.448 29.4566,10 30.0096,10 C30.5626,10 31.0096,10.448 31.0096,11 L31.0096,19 C31.0096,19.552 30.5626,20 30.0096,20"></path><path d="M30.0096,50 C29.4566,50 29.0096,49.552 29.0096,49 L29.0096,40 C29.0096,39.448 29.4566,39 30.0096,39 C30.5626,39 31.0096,39.448 31.0096,40 L31.0096,49 C31.0096,49.552 30.5626,50 30.0096,50"></path><path d="M2.01,43 L8.01,43 L8.01,37 L2.01,37 L2.01,43 Z M9.01,45 L1.01,45 C0.457,45 0.01,44.552 0.01,44 L0.01,36 C0.01,35.448 0.457,35 1.01,35 L9.01,35 C9.562,35 10.01,35.448 10.01,36 L10.01,44 C10.01,44.552 9.562,45 9.01,45 L9.01,45 Z"></path><path d="M52.01,43 L58.01,43 L58.01,37 L52.01,37 L52.01,43 Z M59.01,45 L51.01,45 C50.457,45 50.01,44.552 50.01,44 L50.01,36 C50.01,35.448 50.457,35 51.01,35 L59.01,35 C59.562,35 60.01,35.448 60.01,36 L60.01,44 C60.01,44.552 59.562,45 59.01,45 L59.01,45 Z"></path><path d="M2.01,22 L8.01,22 L8.01,16 L2.01,16 L2.01,22 Z M9.01,24 L1.01,24 C0.457,24 0.01,23.552 0.01,23 L0.01,15 C0.01,14.448 0.457,14 1.01,14 L9.01,14 C9.562,14 10.01,14.448 10.01,15 L10.01,23 C10.01,23.552 9.562,24 9.01,24 L9.01,24 Z"></path><path d="M27.01,56 L33.01,56 L33.01,50 L27.01,50 L27.01,56 Z M34.01,58 L26.01,58 C25.457,58 25.01,57.552 25.01,57 L25.01,49 C25.01,48.448 25.457,48 26.01,48 L34.01,48 C34.562,48 35.01,48.448 35.01,49 L35.01,57 C35.01,57.552 34.562,58 34.01,58 L34.01,58 Z"></path><path d="M27.01,10 L33.01,10 L33.01,4 L27.01,4 L27.01,10 Z M34.01,12 L26.01,12 C25.457,12 25.01,11.552 25.01,11 L25.01,3 C25.01,2.448 25.457,2 26.01,2 L34.01,2 C34.562,2 35.01,2.448 35.01,3 L35.01,11 C35.01,11.552 34.562,12 34.01,12 L34.01,12 Z"></path><path d="M52.01,22 L58.01,22 L58.01,16 L52.01,16 L52.01,22 Z M59.01,24 L51.01,24 C50.457,24 50.01,23.552 50.01,23 L50.01,15 C50.01,14.448 50.457,14 51.01,14 L59.01,14 C59.562,14 60.01,14.448 60.01,15 L60.01,23 C60.01,23.552 59.562,24 59.01,24 L59.01,24 Z"></path></g></g></g></g><g id="SvgjsG1557" featureKey="text1" fill="#ffffff" transform="matrix(4.037558632856803,0,0,4.037558632856803,188.78873549055572,14.531449264201399)"><path d="M0.3 22.82 q0.06 -0.66 0.41 -1.32 t0.83 -1.08 q2.14 1.3 4.06 1.3 q0.84 0 1.23 -0.38 t0.39 -0.94 q0 -0.94 -1.26 -1.48 l-2.36 -1 q-1.38 -0.62 -2.12 -1.49 t-0.74 -2.21 q0 -0.92 0.37 -1.68 t1.04 -1.32 t1.59 -0.87 t2.04 -0.31 q2.24 0 4.52 1.14 q-0.1 1.54 -1.08 2.4 q-2.04 -0.98 -3.6 -0.98 q-0.8 0 -1.2 0.36 t-0.4 0.82 q0 0.78 1.18 1.26 l2.4 1.02 q1.52 0.64 2.27 1.64 t0.75 2.32 q0 0.94 -0.34 1.72 t-1.01 1.35 t-1.67 0.89 t-2.34 0.32 q-2.6 0 -4.96 -1.48 z M18.18 14 q0.12 0.56 0.12 1.12 t-0.12 1.1 l-2.38 -0.04 l0 4.6 q0 0.94 0.88 0.94 l1.12 0 q0.26 0.72 0.26 1.32 t-0.08 0.86 q-1.48 0.2 -2.72 0.2 q-2.52 0 -2.52 -2.78 l0 -5.12 l-1.56 0.02 q-0.14 -0.5 -0.14 -1.09 t0.14 -1.13 l1.56 0.04 l0 -1.16 q0 -1.02 0.39 -1.45 t1.31 -0.43 l1.22 0 l0.14 0.14 l0 2.9 z M28.32 22.56 q-0.1 0.42 -0.38 0.9 t-0.58 0.7 q-1.4 -0.04 -2.16 -1.06 q-1.3 1.2 -2.82 1.2 q-0.78 0 -1.36 -0.25 t-0.98 -0.67 t-0.6 -0.97 t-0.2 -1.15 q0 -0.86 0.31 -1.51 t0.85 -1.08 t1.26 -0.65 t1.54 -0.22 q0.46 0 0.81 0.01 t0.61 0.03 l0 -0.38 q0 -1.26 -1.3 -1.26 q-0.84 0 -2.94 0.64 q-0.6 -0.7 -0.76 -2.18 q0.48 -0.18 1.07 -0.34 t1.21 -0.28 t1.22 -0.19 t1.08 -0.07 q0.7 0 1.35 0.2 t1.14 0.61 t0.78 1.06 t0.29 1.55 l0 4.06 q0 0.92 0.56 1.3 z M22.28 21.06 q0 0.94 1.08 0.94 q0.56 0 1.26 -0.58 l0 -1.6 q-0.4 -0.02 -0.67 -0.03 t-0.41 -0.01 q-1.26 0 -1.26 1.28 z M29.5 15.46 q0.1 -0.4 0.38 -0.89 t0.56 -0.71 q1.84 0.14 2.56 1.82 q0.76 -1.8 2.5 -1.8 q0.52 0 1.32 0.16 q0 0.62 -0.21 1.47 t-0.57 1.45 q-0.34 -0.12 -1.02 -0.2 q-1 0 -1.64 1.02 l0 6.22 q-0.66 0.12 -1.55 0.12 t-1.57 -0.12 l0 -6.46 q0 -1.5 -0.76 -2.08 z M45.699999999999996 20.02 l0.5 1.46 q0.4 1.32 0.96 1.7 q-0.88 0.98 -2.1 0.98 q-0.66 0 -1 -0.31 t-0.6 -1.09 l-0.6 -1.72 q-0.2 -0.62 -0.46 -0.83 t-0.7 -0.21 t-0.62 0.02 l0 3.98 q-0.66 0.12 -1.52 0.12 t-1.52 -0.12 l0 -14.58 l0.14 -0.14 l1.2 0 q0.94 0 1.32 0.42 t0.38 1.46 l0 6.28 l0.32 0 q0.36 0 0.56 -0.36 l1.04 -2 q0.56 -1.14 1.76 -1.14 q0.58 0 1.74 0.04 l0.12 0.16 l-1.54 2.98 q-0.4 0.76 -1.02 1.18 q1.2 0.44 1.64 1.72 z"></path></g><g id="SvgjsG1558" featureKey="text3" fill="#ffffff" transform="matrix(0.9752925200439012,0,0,0.9752925200439012,202,123.68920745205276)"><path d="M6.48 19.6 l-1.14 0 l-5.34 -15 l2.36 0 l3.58 10.58 l3.78 -10.58 l1.14 0 l3.78 10.58 l3.58 -10.58 l2.38 0 l-5.34 15 l-1.14 0 l-3.82 -10.54 z M24.62 17.76 l8.14 0 l0 1.84 l-10.36 0 l0 -15 l9.98 0 l0 1.84 l-7.76 0 l0 4.44 l6.34 0 l0 1.86 l-6.34 0 l0 5.02 z M44.2 11.180000000000001 c1.18 0.82 1.96 2.22 1.96 3.82 c0 2.54 -2 4.6 -4.46 4.6 l-5.94 0 l0 -15 l5.94 0 c2.02 0 3.64 1.72 3.64 3.8 c0 1.08 -0.44 2.08 -1.14 2.78 z M37.980000000000004 6.440000000000001 l0 3.96 l3.72 0 l0.06 0 c0.76 -0.06 1.36 -0.96 1.36 -2 c0 -1.06 -0.64 -1.96 -1.42 -1.96 l-3.72 0 z M41.7 17.76 c1.24 0 2.24 -1.24 2.24 -2.76 c0 -1.48 -0.96 -2.7 -2.14 -2.76 l-0.1 0 l-3.72 0 l0 5.52 l3.72 0 z  M66.46000000000001 16.060000000000002 l1.46 1.46 c-1.38 1.52 -3.36 2.28 -5.54 2.28 c-4.22 0 -7.62 -3.34 -7.62 -7.7 c0 -4.34 3.4 -7.68 7.62 -7.68 c2.18 0 4.16 0.76 5.56 2.3 l-1.46 1.46 c-0.88 -1.28 -2.48 -1.92 -4.1 -1.92 c-3.1 0 -5.4 2.76 -5.4 5.84 c0 2.82 2.08 5.86 5.4 5.86 c1.44 0 3.28 -0.56 4.08 -1.9 z M77.36 6.260000000000002 c-3.16 0 -5.4 2.8 -5.4 5.84 c0 3.06 2.24 5.86 5.4 5.86 c3.18 0 5.4 -2.8 5.4 -5.86 c0 -3.04 -2.24 -5.84 -5.4 -5.84 z M77.36 4.420000000000002 c4.2 0 7.62 3.32 7.62 7.68 s-3.42 7.7 -7.62 7.7 s-7.62 -3.34 -7.62 -7.7 s3.42 -7.68 7.62 -7.68 z M100.74000000000001 4.600000000000001 l0 15 l-2.68 0 l-8.04 -11.94 l0 11.94 l-2.24 0 l0 -15 l2.68 0 l8.06 11.94 l0 -11.94 l2.22 0 z M115.24000000000001 16.060000000000002 l1.46 1.46 c-1.38 1.52 -3.36 2.28 -5.54 2.28 c-4.22 0 -7.62 -3.34 -7.62 -7.7 c0 -4.34 3.4 -7.68 7.62 -7.68 c2.18 0 4.16 0.76 5.56 2.3 l-1.46 1.46 c-0.88 -1.28 -2.48 -1.92 -4.1 -1.92 c-3.1 0 -5.4 2.76 -5.4 5.84 c0 2.82 2.08 5.86 5.4 5.86 c1.44 0 3.28 -0.56 4.08 -1.9 z M121.94 17.76 l8.14 0 l0 1.84 l-10.36 0 l0 -15 l9.98 0 l0 1.84 l-7.76 0 l0 4.44 l6.34 0 l0 1.86 l-6.34 0 l0 5.02 z M144 10.120000000000001 c0 3.04 -2.36 5.5 -5.28 5.52 l-3.6 0 l0 3.96 l-2.24 0 l0 -15 l5.84 0 c2.92 0.02 5.28 2.48 5.28 5.52 z M138.68 13.8 c1.72 0 3.1 -1.66 3.1 -3.68 s-1.38 -3.68 -3.1 -3.68 l-3.56 0 l0 7.36 l3.56 0 z M156.70000000000002 4.600000000000001 l0 1.84 l-4.64 0 l0 13.16 l-2.22 0 l0 -13.16 l-4.64 0 l0 -1.84 l11.5 0 z M168.60000000000002 14.100000000000001 c0.06 0.14 0.54 1.5 -0.08 2.92 c-0.72 1.7 -2.74 2.76 -5.26 2.78 c-2.18 0 -4.16 -0.96 -5.56 -2.48 l1.48 -1.48 c0.7 1.24 2.48 2.12 4.08 2.12 c1.74 -0.02 2.76 -0.66 3.18 -1.66 c0.32 -0.74 0.06 -1.54 0.04 -1.56 c-0.42 -1.16 -1.58 -1.42 -3.22 -1.92 c-1.86 -0.56 -4 -1.02 -4.7 -2.98 c-0.38 -1.02 -0.28 -2.2 0.24 -3.16 c1.16 -2.2 4.12 -2.26 4.46 -2.26 c2.2 0 4.16 0.96 5.56 2.5 l-1.46 1.46 c-0.82 -1.2 -2.42 -2.12 -4.1 -2.12 c-0.02 0 -1.78 0 -2.46 1.28 c-0.26 0.5 -0.32 1.16 -0.14 1.68 c0.4 1.1 1.54 1.36 3.14 1.84 c1.9 0.58 4.04 1.02 4.8 3.04 z"></path></g>
			</g>
		</svg>
	